<?xml version="1.0" encoding="iso-8859-1"?>
<!-- Generator: Adobe Illustrator 18.1.1, SVG Export Plug-In . SVG Version: 6.00 Build 0)  -->
<svg version="1.1" id="Capa_1" xmlns="http://www.w3.org/2000/svg" xmlns:xlink="http://www.w3.org/1999/xlink" x="0px" y="0px"
	 viewBox="0 0 290 290" style="enable-background:new 0 0 290 290;" xml:space="preserve">
<path color-rendering="auto" image-rendering="auto" shape-rendering="auto" color-interpolation="sRGB" d="M149.629,0
	c-2.761,0-5,2.239-5,5v27.598c-5.205,0-10.297,2.674-13.062,7.465c-1.153,1.996-1.77,4.159-1.93,6.33
	c-39.743,13.323-66.832,52.056-64.074,95.344c2.727,42.802,33.837,77.474,74.279,86.146c1.168,7.974,7.106,14.448,14.787,16.453V250
	h-55c-2.761,0-5,2.239-5,5v30c0,2.761,2.239,5,5,5h120c2.761,0,5-2.239,5-5v-30c0-2.761-2.239-5-5-5h-55v-5.664
	c8.589-2.242,15-10.077,15-19.336c0-9.259-6.411-17.094-15-19.336V190h25c2.761,0.039,5.032-2.168,5.071-4.929
	c0.039-2.761-2.168-5.032-4.929-5.071c-0.047-0.001-0.094-0.001-0.141,0h-60c-2.761-0.039-5.032,2.168-5.071,4.929
	c-0.039,2.761,2.168,5.032,4.929,5.071c0.047,0.001,0.094,0.001,0.141,0h25v15.664c-6.272,1.637-11.366,6.256-13.664,12.24
	c-35.726-8.07-63.001-38.801-65.422-76.805c-2.457-38.573,21.43-72.963,56.697-85.033c1.222,1.787,2.832,3.34,4.817,4.486
	c2.377,1.372,4.991,1.996,7.572,1.973V105c0,2.761,2.239,5,5,5h20c2.761,0,5-2.239,5-5V5c0-2.761-2.239-5-5-5L149.629,0L149.629,0z
	 M154.629,10h10v90h-10V58.658c1.129-1.017,2.124-2.216,2.92-3.596c3.569-6.182,2.167-13.963-2.92-18.602V10z M144.195,42.549
	c0.956-0.062,1.946,0.155,2.862,0.684c2.443,1.41,3.24,4.387,1.83,6.83c-1.41,2.443-4.387,3.24-6.83,1.83
	c-2.443-1.41-3.241-4.387-1.83-6.83C141.108,43.536,142.603,42.653,144.195,42.549z M149.629,120
	c-2.761-0.039-5.032,2.168-5.071,4.929c-0.039,2.761,2.168,5.032,4.929,5.071c0.047,0.001,0.094,0.001,0.141,0h20
	c2.761,0.039,5.032-2.168,5.071-4.929c0.039-2.761-2.168-5.032-4.929-5.071c-0.047-0.001-0.094-0.001-0.141,0H149.629z M159.629,215
	c5.582,0,10,4.418,10,10c0,5.582-4.418,10-10,10s-10-4.418-10-10C149.629,219.418,154.047,215,159.629,215z M104.629,260h110v20
	h-110V260z"/>
<g>
</g>
<g>
</g>
<g>
</g>
<g>
</g>
<g>
</g>
<g>
</g>
<g>
</g>
<g>
</g>
<g>
</g>
<g>
</g>
<g>
</g>
<g>
</g>
<g>
</g>
<g>
</g>
<g>
</g>
</svg>
