<?xml version="1.0" encoding="iso-8859-1"?>
<!-- Generator: Adobe Illustrator 19.0.0, SVG Export Plug-In . SVG Version: 6.00 Build 0)  -->
<svg version="1.1" id="Layer_1" xmlns="http://www.w3.org/2000/svg" xmlns:xlink="http://www.w3.org/1999/xlink" x="0px" y="0px"
	 viewBox="0 0 486.401 486.401" style="enable-background:new 0 0 486.401 486.401;" xml:space="preserve">
<g>
	<g>
		<g>
			<path d="M188.261,227.545c0,30.293,24.645,54.939,54.939,54.939c30.293,0,54.939-24.645,54.939-54.939
				s-24.646-54.94-54.939-54.94C212.907,172.605,188.261,197.252,188.261,227.545z M243.2,191.605
				c19.817,0,35.939,16.124,35.939,35.94s-16.122,35.939-35.939,35.939c-19.816,0-35.939-16.122-35.939-35.939
				S223.383,191.605,243.2,191.605z"/>
			<path d="M172.651,227.545c0-25.089,13.521-48.499,35.287-61.093c4.538-2.626,6.091-8.432,3.469-12.973L134.593,20.433
				c-2.623-4.544-8.434-6.101-12.977-3.477c-37.62,21.72-68.745,53.081-90.01,90.693C10.969,144.15,0.039,185.607,0,227.536
				c-0.003,2.521,0.997,4.939,2.779,6.723s4.2,2.786,6.721,2.786h153.651C168.398,237.045,172.651,232.792,172.651,227.545z
				 M19.212,218.045c3.186-73.069,42.134-140.514,103.779-179.709l67.47,116.863c-20.361,14.883-33.603,37.809-36.299,62.846H19.212
				z"/>
			<path d="M453.79,105.961c-21.373-37.021-52.148-67.81-88.997-89.038c-4.545-2.616-10.349-1.058-12.97,3.482l-76.83,133.074
				c-2.621,4.541-1.068,10.347,3.47,12.973c21.765,12.594,35.286,36.004,35.286,61.093c0,5.247,4.254,9.5,9.5,9.5H476.9
				c5.244,0,9.495-4.248,9.501-9.491C486.441,185.027,475.164,142.981,453.79,105.961z M332.238,218.045
				c-2.696-25.037-15.938-47.963-36.299-62.846L363.43,38.301c30.364,19.273,55.792,45.787,73.905,77.16
				c18.113,31.372,28.361,66.651,29.87,102.584H332.238z"/>
			<path d="M291.446,292.111c-1.26-2.184-3.337-3.776-5.772-4.428c-2.437-0.651-5.03-0.309-7.212,0.955
				c-10.691,6.185-22.884,9.455-35.262,9.455s-24.571-3.27-35.262-9.456c-2.182-1.263-4.777-1.606-7.212-0.955
				c-2.436,0.652-4.513,2.245-5.773,4.428l-76.83,133.074c-1.261,2.183-1.601,4.778-0.948,7.213
				c0.653,2.435,2.248,4.511,4.433,5.769c36.331,20.93,77.698,32.193,119.628,32.572c0.725,0.007,1.443,0.01,2.168,0.01
				c42.463-0.001,84.391-11.259,121.38-32.614c2.182-1.26,3.774-3.335,4.426-5.768c0.652-2.434,0.311-5.027-0.949-7.209
				L291.446,292.111z M139.433,426.274l67.475-116.87c11.386,5.051,23.766,7.69,36.292,7.69s24.907-2.639,36.292-7.69l67.463,116.85
				C282.188,460.042,204.305,460.049,139.433,426.274z"/>
			<path d="M83.483,116.48c-4.403-2.854-10.286-1.598-13.139,2.805c-16.02,24.717-22.839,50.514-27.396,72.489
				c-1.065,5.137,2.236,10.166,7.373,11.231c0.651,0.135,1.299,0.2,1.939,0.2c4.408,0,8.361-3.086,9.292-7.573
				c4.2-20.25,10.423-43.929,24.736-66.013C89.142,125.216,87.886,119.334,83.483,116.48z"/>
			<path d="M110.439,72.793c-1.817,1.662-3.344,3.006-4.821,4.306c-3.589,3.158-6.688,5.886-11.021,10.688
				c-3.515,3.895-3.206,9.902,0.689,13.417c1.816,1.639,4.092,2.447,6.361,2.447c2.595,0,5.18-1.058,7.057-3.135
				c3.601-3.991,6.062-6.157,9.468-9.155c1.472-1.295,3.141-2.764,5.092-4.549c3.871-3.542,4.139-9.551,0.597-13.422
				C120.32,69.52,114.31,69.25,110.439,72.793z"/>
			<path d="M369.55,80.959c-4.545-2.624-10.354-1.067-12.977,3.477l-34.621,59.966c-2.624,4.544-1.067,10.354,3.477,12.977
				c1.497,0.863,3.13,1.274,4.741,1.274c3.283,0,6.477-1.704,8.236-4.751l34.621-59.966
				C375.651,89.392,374.094,83.582,369.55,80.959z"/>
			<path d="M216.393,348.025c-4.543-2.624-10.354-1.067-12.977,3.477l-33.993,58.878c-2.624,4.543-1.067,10.354,3.477,12.977
				c1.496,0.863,3.129,1.274,4.741,1.274c3.283,0,6.477-1.704,8.236-4.751l33.993-58.878
				C222.494,356.459,220.937,350.648,216.393,348.025z"/>
		</g>
	</g>
</g>
<g>
</g>
<g>
</g>
<g>
</g>
<g>
</g>
<g>
</g>
<g>
</g>
<g>
</g>
<g>
</g>
<g>
</g>
<g>
</g>
<g>
</g>
<g>
</g>
<g>
</g>
<g>
</g>
<g>
</g>
</svg>
